<svg version="1.2" xmlns="http://www.w3.org/2000/svg" viewBox="0 0 864 527" width="864" height="527">
	<title>Humo_Logo_Traced-ai</title>
	<defs>
		<linearGradient id="g1" x2="1" gradientUnits="userSpaceOnUse" gradientTransform="matrix(447.771,-137.457,147.679,481.071,353.76,7.325)">
			<stop offset=".329" stop-color="#9b8837"/>
			<stop offset=".561" stop-color="#f6e69d"/>
			<stop offset=".788" stop-color="#b39f4d"/>
		</linearGradient>
		<linearGradient id="g2" x2="1" gradientUnits="userSpaceOnUse" gradientTransform="matrix(-85.609,-64.785,64.426,-85.134,151.608,339.738)">
			<stop offset=".329" stop-color="#9b8837"/>
			<stop offset=".561" stop-color="#f6e69d"/>
			<stop offset=".788" stop-color="#b39f4d"/>
		</linearGradient>
		<linearGradient id="g3" x2="1" gradientUnits="userSpaceOnUse" gradientTransform="matrix(-90.71,-68.645,61.057,-80.683,127.522,379.009)">
			<stop offset=".329" stop-color="#9b8837"/>
			<stop offset=".561" stop-color="#f6e69d"/>
			<stop offset=".788" stop-color="#b39f4d"/>
		</linearGradient>
		<linearGradient id="g4" x2="1" gradientUnits="userSpaceOnUse" gradientTransform="matrix(-107.524,-81.369,82.804,-109.42,229.23,301.396)">
			<stop offset=".329" stop-color="#9b8837"/>
			<stop offset=".561" stop-color="#f6e69d"/>
			<stop offset=".788" stop-color="#b39f4d"/>
		</linearGradient>
		<linearGradient id="g5" x2="1" gradientUnits="userSpaceOnUse" gradientTransform="matrix(-446.442,-337.848,1929.302,-2549.435,527.867,527.385)">
			<stop offset=".329" stop-color="#9b8837"/>
			<stop offset=".561" stop-color="#f6e69d"/>
			<stop offset=".788" stop-color="#b39f4d"/>
		</linearGradient>
		<linearGradient id="g6" x2="1" gradientUnits="userSpaceOnUse" gradientTransform="matrix(-122.506,-64.982,65.051,-122.638,449.101,358.843)">
			<stop offset=".329" stop-color="#9b8837"/>
			<stop offset=".561" stop-color="#f6e69d"/>
			<stop offset=".788" stop-color="#b39f4d"/>
		</linearGradient>
		<linearGradient id="g7" x2="1" gradientUnits="userSpaceOnUse" gradientTransform="matrix(-132.135,-82.728,86.269,-137.791,318.167,371.096)">
			<stop offset=".329" stop-color="#9b8837"/>
			<stop offset=".561" stop-color="#f6e69d"/>
			<stop offset=".788" stop-color="#b39f4d"/>
		</linearGradient>
		<linearGradient id="g8" x2="1" gradientUnits="userSpaceOnUse" gradientTransform="matrix(-193.939,-112.566,115.167,-198.421,608.23,390.798)">
			<stop offset=".329" stop-color="#9b8837"/>
			<stop offset=".561" stop-color="#f6e69d"/>
			<stop offset=".788" stop-color="#b39f4d"/>
		</linearGradient>
	</defs>
	<style>
		.s0 { fill: #2d4553 } 
		.s1 { fill: url(#g1) } 
		.s2 { fill: url(#g2) } 
		.s3 { fill: url(#g3) } 
		.s4 { fill: url(#g4) } 
		.s5 { fill: url(#g5) } 
		.s6 { fill: url(#g6) } 
		.s7 { fill: #fefefe } 
		.s8 { fill: url(#g7) } 
		.s9 { fill: url(#g8) } 
	</style>
	<g id="Layer 1">
		<path id="&lt;Path&gt;" class="s0" d="m319.1 16.8c92.1 0 184.3 0.3 276.4-0.2 25.3-0.2 50.7-0.3 76-0.6 2.1 0 4.3 0.3 6.4 0.4 10.3 0.9 13 9.2 15 17.8 21.8 91.2 14.9 188.3-23.8 274-10.3 22.8-22.9 44.4-36.8 65.1-10.9 16.3-22.9 31.9-35.9 46.7-9.7 11-19.9 21.5-30.8 31.3-20.4 18.5-42.1 35.3-67.3 46.9-13.4 6.1-27.5 10-42.1 12-14.6 2.1-29.2 2.1-43.8 1.7-80.8-1.7-161.6-0.4-242.4-0.7-41.8-0.2-83.7-0.1-125.5 0-4.4 0-8.7-0.4-12.8-1.7-8.6-2.8-13.8-10.3-14.2-20.3-0.2-2.8-0.1-5.6-0.1-8.5q-0.1-217.4 0-434.9c0-4.1 0-8.2 0.9-12.4 1.9-9.9 9.8-15.9 19.8-16.5 3.5-0.2 7-0.1 10.5-0.1q135.3 0 270.5 0z"/>
		<path id="&lt;Path&gt;" class="s1" d="m690.2 410c5-1.3 9.1-4.2 12.9-7.3 16.4-13 28.5-29.5 38.9-47.5 37.4-65 59.4-137.9 63.8-213 0.4-7.7 0.4-15.3 0.7-23 0-1.1-0.3-2.3 0.7-3.5 3 0.8 5.7 2.3 8.1 4.4 28.9 25.7 33.8 74.4 30.7 110.4-7.4 85.2-54.5 176.2-130.1 220.2q-2.6 1.5-5.2 2.9c-11.7 6.3-23.8 11.1-36.3 15.3q-3.5 1.2-7 2.4c10.2-0.6 24.5-2.4 40.6-7.7 43.1-14.1 77.4-46.1 101.3-83.9 5.8-9.3 11.1-19 16.2-28.7 0.3-0.6 0.6-1.2 1.4-1.3 1 0 1.4 0.7 1.7 1.5 12 27.6 8.9 56-8 81-33.2 49.2-103.4 78.5-161.5 78.8-53.5 0.2-107 0.1-160.4 0.1-1.7 0-4.3 0.9-4.8-1.5-0.5-2.5 2.3-2.2 3.8-2.9 81.2-37.4 142.6-102.5 182.7-182 34.8-69.1 52.2-147.3 45.4-224.6-2.2-24.8-6.8-49.4-13.8-73.2-0.5-1.4-1.1-2.8-1.3-4.3-1-5.1 0.5-6.4 5.8-5.9 13.1 1.3 24.7 6.1 35 14.3 19.6 15.3 27.1 43.2 31.6 66.7 8.4 43.9-0.2 92.6-10.4 135.5-13.4 55.9-35.9 110.6-68.4 158.1-3.5 5.1-7.5 9.8-11.2 14.7-1 1.3-2 2.7-2.9 4z"/>
		<g id="&lt;Group&gt;">
			<path id="&lt;Path&gt;" class="s2" d="m227.6 225.6c-0.1-6.9-2.3-13.8-8.3-17.7-6-3.8-13.9-3.7-18.5 2.1-0.4 0.4-1.2 1.2-1 1.9 0.3 0.7 1.7 0.5 2.4 0.8 1 0.6 1.4 1.6 1.4 2.7 0 1.4 0 13.9-0.1 31.3q-22.9-0.2-45.8-0.3c-0.3-3.8-0.4-8-0.1-12.7q0.4-6.4 1.6-12.7 0.6-2.7 1.3-5.4c0.5-2 1.9-4.5 1.8-6.5 0-0.3-0.1-0.6-0.3-0.8-0.4-0.5-1.2-0.4-1.8-0.3-3.9 1-7.7 3.1-10.6 5.8-0.9 0.8-3.4 3.1-5.6 7.1-5.9 10.5-6.3 25.4-6.3 25.4-0.3 9.6-0.7 29.2 9.5 49.4 0 0 7.2 14.2 17.5 17.7 2 0.7 2.6 0.3 2.8 0 0.8-1-0.9-2.7-1.5-3.5q-1.4-2.2-2.4-4.6c-1.4-3.3-2.4-6.7-3.1-10.2-2.1-10.6-3.5-21.4-3.2-32.2h46.2q0 20.3 0 40.7c0 2.7 1.1 5.3 3.6 6.6 1.5 0.8 3.2 1 4.9 1.2 2.9 0.4 5.9 0.6 8.8 0.1 1.7-0.4 3.4-1 4.6-2.2 2.1-1.8 2.1-4.4 2.1-7 0-20.5 0.2-41 0.2-61.4q0-7.7-0.1-15.3z"/>
			<path id="&lt;Path&gt;" class="s3" d="m164.3 318.6c-18.7-5.5-26-25.2-29.9-42.4-0.9-3.7-1.7-7.4-2.2-11.2-1.5-11.5-1.5-24.2 2.3-35.3-2.9 0.6-4.2 3.1-5.8 5.1-6.1 7.2-6.6 15.7-6.9 24.1-0.7 19.8 6.6 33.9 8.2 36.9 3.6 6.8 7.6 11.3 8.7 12.5 4.2 4.6 8.3 7.8 11.5 9.9-2.5-0.6-6.1-1.8-9.9-4.1-3.6-2.2-6.1-4.7-7.8-6.5-2.4-3.1-4.1-5.8-5.2-7.7-2.9-5.2-6.6-11.6-8.5-20.2-0.6-2.4-0.9-4.8-1.9-4.9-1.3-0.2-2.9 4.7-3.2 5.8-1.1 3.4-1.4 6.5-1.3 8.2 0 6.4 4.9 19.1 16.5 27.6 0 0 10.2 7.5 27.5 8 0.7 0.1 4.9 0 8-2.3 1.6-1.1 2.6-2.7-0.1-3.5z"/>
			<path id="&lt;Path&gt;" class="s4" d="m134.5 229.6q0 0.1 0 0.1 0 0 0.1 0z"/>
			<path id="&lt;Path&gt;" class="s5" d="m134.5 229.6c0 0 0.1 0.1 0.1 0.1l0.2-0.3c0 0-0.3 0.2-0.3 0.2z"/>
		</g>
		<path id="&lt;Path&gt;" class="s6" d="m466.2 223.2c0.1-2.3 0-5.9-0.9-10.1-0.1-0.5-0.2-1.5-0.7-2.8-0.3-0.7-1.1-2.5-3-3.7-1.1-0.6-2.2-1-3.4-1-0.9 0-1.7 0-2.5 0q-1.8 0.1-3.5 0.1c-2.3 0-4.6-0.1-6.8 0-2.1 0.1-4 0.8-5.4 2.3-1.7 1.8-3.1 4.4-5.4 9.9-0.3 0.9-0.6 1.7-0.8 2.2-0.9 1.9-13.1 28.3-17.7 35.9-0.3 0.6-1.1 1.8-2 1.8-1 0-1.7-1.2-2-1.8-4.6-7.6-16.8-34-17.7-35.9-0.2-0.5-0.5-1.3-0.9-2.2-2.3-5.5-3.6-8.1-5.3-9.9-1.5-1.5-3.4-2.2-5.4-2.3-2.3-0.1-4.5 0-6.8 0q-1.8 0-3.5-0.1c-0.8 0-1.7 0-2.5 0-1.2 0-2.4 0.4-3.4 1-1.9 1.2-2.7 3-3 3.7-0.6 1.3-0.7 2.3-0.8 2.8-0.8 4.2-0.9 7.8-0.8 10.1q-1.4 40.8-2.7 81.6c0 0.4 0.1 1.1 0.4 1.8 1.4 3.9 6.4 5.9 10.3 6 3.9 0 8.6-1.9 10.3-5.5 0 0 0.3-0.7 0.5-1.5 1.1-5.5 1.8-50.1 2.1-69.5 10.6 21.8 18.9 38.1 22.8 45.3 0.8 1.4 2.4 4.4 5.5 5.4 0.9 0.3 1.9 0.5 2.9 0.5 1 0 2-0.2 2.9-0.5 3-1 4.7-4 5.5-5.4 3.8-7.2 12.2-23.5 22.8-45.3 0.2 19.4 0.9 64 2.1 69.5 0.1 0.8 0.4 1.5 0.5 1.5 1.6 3.6 6.3 5.5 10.2 5.5 3.9-0.1 9-2.1 10.4-6 0.2-0.7 0.3-1.4 0.3-1.8q-1.3-40.8-2.6-81.6z"/>
		<path id="&lt;Path&gt;" class="s7" d="m276.6 287.6q0.3 0 0.7 0.1 0 0.1-0.1 0.1c-0.1 0.3-0.8 0.1-0.6-0.2z"/>
		<path id="&lt;Path&gt;" class="s8" d="m338.1 208.8c-2.2-2.8-6-2.9-9.6-3-3.5-0.1-7.8-0.2-10.6 2.8-1.5 1.7-1.9 3.7-2.1 5q-0.1 30-0.2 60.1c0.1 2-0.1 5.7-2.1 9.8-2.1 4.3-5.1 6.7-5.8 7.3 0 0-5.1 4-11.7 4.5-0.6 0.1-1.3 0.1-1.3 0.1q-0.3 0-0.6 0-0.2 0-0.5 0c0 0-0.7 0-1.3-0.1-6.6-0.5-11.7-4.5-11.7-4.5-0.8-0.6-3.7-3-5.8-7.3-2-4.1-2.2-7.8-2.2-9.8q-0.1-30.1-0.1-60.1c-0.2-1.3-0.6-3.3-2.1-5-2.8-3-7.1-2.9-10.6-2.8-3.6 0.1-7.4 0.2-9.6 3-1.7 2.2-1.6 4.9-1.5 6.1q0 31.5 0 63c0 5.9 1.7 13.6 7.3 21 6.3 8.3 15.3 12 18.1 13 5.6 2.1 11.1 2.7 12.8 2.8 2.9 0.3 5.4 0.3 7.2 0.3 1.9 0 4.4 0 7.3-0.3 1.7-0.1 7.2-0.7 12.8-2.8 2.8-1 11.7-4.7 18.1-13 5.6-7.4 7.3-15.1 7.3-21q0-31.5 0-63c0.1-1.2 0.2-3.9-1.5-6.1z"/>
		<path id="&lt;Path&gt;" class="s7" d="m281.7 313.6q0.3 0 0.6 0.2c0 0-0.3 0.2-0.3 0.2z"/>
		<path id="&lt;Compound Path&gt;" fill-rule="evenodd" class="s9" d="m552.4 313.4c-5 1.3-10.2 1.9-15.4 1.8-5.2 0.1-10.4-0.5-15.4-1.8-31.3-8.2-44.4-45.2-35.7-74.3 3.1-10.1 9.3-19 17.7-25.3 9.6-7.2 21.5-11 33.4-11.3 11.9 0.3 23.8 4.1 33.4 11.3 8.4 6.3 14.7 15.2 17.7 25.3 8.7 29.1-4.4 66.1-35.7 74.3zm7.6-82.5c-5.1-8.2-13.9-13.1-23-13.1-9.1 0-17.9 4.9-23 13.1-7.4 11.8-8 27.4-4.9 40.7 3.3 13.7 12.4 28.5 27.9 28.6 15.5-0.1 24.6-14.9 27.9-28.6 3.1-13.3 2.5-28.9-4.9-40.7z"/>
	</g>
</svg>